<?xml version="1.0" encoding="utf-8"?>
<!-- Generator: Adobe Illustrator 16.0.0, SVG Export Plug-In . SVG Version: 6.00 Build 0)  -->
<!DOCTYPE svg PUBLIC "-//W3C//DTD SVG 1.1//EN" "http://www.w3.org/Graphics/SVG/1.1/DTD/svg11.dtd">
<svg version="1.1" id="图层_1" xmlns="http://www.w3.org/2000/svg" xmlns:xlink="http://www.w3.org/1999/xlink" x="0px" y="0px"
	 width="32px" height="32px" viewBox="0 0 32 32" enable-background="new 0 0 32 32" xml:space="preserve">
<path fill="#FF9600" d="M16,2c-0.676,0-1.292,0.39-1.582,1l-3.542,7.478l-7.4,1.168c-0.648,0.104-1.186,0.562-1.39,1.188
	C2.028,13.01,2,13.194,2,13.376c0,0.456,0.18,0.904,0.512,1.236l5.462,5.462l-1.566,7.832c-0.134,0.668,0.134,1.355,0.684,1.758
	C7.398,29.886,7.76,30,8.124,30c0.292,0,0.584-0.072,0.85-0.22L16,25.878V2z"/>
<path fill="#DDDDDD" d="M16,25.878l7.025,3.902c0.266,0.147,0.559,0.22,0.85,0.22c0.365,0,0.727-0.114,1.033-0.336
	c0.549-0.402,0.817-1.09,0.684-1.758l-1.566-7.832l5.462-5.462C29.819,14.28,30,13.832,30,13.376c0-0.182-0.028-0.366-0.086-0.542
	c-0.205-0.626-0.742-1.084-1.391-1.188l-7.4-1.168L17.582,3C17.291,2.39,16.676,2,16,2V25.878z"/>
</svg>
